<?xml version="1.0" encoding="utf-8"?>
<!-- Generator: Adobe Illustrator 26.0.2, SVG Export Plug-In . SVG Version: 6.00 Build 0)  -->
<svg version="1.1" id="Layer_1" xmlns="http://www.w3.org/2000/svg" xmlns:xlink="http://www.w3.org/1999/xlink" x="0px" y="0px"
	 viewBox="0 0 200 200" style="enable-background:new 0 0 200 200;" xml:space="preserve">
<style type="text/css">
	.st0{fill:url(#SVGID_1_);}
	.st1{fill:url(#SVGID_00000042719637767812272330000007670094137461175179_);}
	.st2{fill:url(#SVGID_00000030451552708386332730000006653000228287992752_);}
</style>
<g>
	
		<linearGradient id="SVGID_1_" gradientUnits="userSpaceOnUse" x1="133.6683" y1="130.8739" x2="-17.8366" y2="-29.2395" gradientTransform="matrix(1 0 0 -1 0 202)">
		<stop  offset="0" style="stop-color:#6B09EA"/>
		<stop  offset="1" style="stop-color:#5709DE"/>
	</linearGradient>
	<path class="st0" d="M135.8,157.6c-17.4,0.2-32.1-6.6-41.4-19.2c-11.7-15.7-13.7-38.8-5.6-64.9c0.3-1.1-0.3-2.3-1.3-2.7
		C60.7,60.3,38.4,69.7,23,98c-0.2,0.4-0.3,0.9-0.2,1.4c6.7,41.6,43.8,72.3,76.4,87.2c0,0,0,0,0,0c0.6,0.3,1.2,0.2,1.8,0
		c12.6-5.3,25.8-14.5,36.5-25.3C138.8,159.9,137.8,157.6,135.8,157.6z M27.3,99.4C41.2,74.4,60.1,65.8,83.6,74
		c-10.8,21.3-15.7,39.9-14.8,56.7c0,0,0,0,0,0c0.9,16.4,7.4,31.4,19.8,45.5C60.9,160.4,33.1,133.8,27.3,99.4z M100.5,182
		c-17.6-16-26.3-32.4-27.3-51.4c0,0,0,0,0,0c-0.6-11.6,1.7-24.2,6.9-38.1c-0.6,5.3-0.8,10.4-0.6,15.2c0.7,12.8,4.5,24.2,11.3,33.3
		c9.3,12.4,23.2,19.7,39.7,20.9C121.4,170.3,110.8,177.4,100.5,182z"/>
	
		<linearGradient id="SVGID_00000065055197505656317180000016487546064968052123_" gradientUnits="userSpaceOnUse" x1="153.2034" y1="227.1391" x2="-72.1483" y2="-11.0171" gradientTransform="matrix(1 0 0 -1 0 202)">
		<stop  offset="0" style="stop-color:#6B09EA"/>
		<stop  offset="1" style="stop-color:#5709DE"/>
	</linearGradient>
	<path style="fill:url(#SVGID_00000065055197505656317180000016487546064968052123_);" d="M60.1,59.4c19.5-2.3,40.4,7.5,59,27.6
		c0,0,0,0,0,0c0.8,0.8,2.1,0.9,3,0.2c13.6-10.9,20.2-24,19.4-38.7c-0.5-9.5-4.1-19.9-10.8-30.7c-0.3-0.4-0.6-0.7-1.1-0.9
		C90.3,1.9,45.1,18.7,16,39.5c-0.5,0.3-0.8,0.9-0.9,1.5c-0.7,5.7-0.9,11.9-0.6,18.2c0.5,8.7,1.9,17.6,4.2,26c0.5,1.9,3.1,2.2,4,0.5
		C31.3,70.6,44.6,61.2,60.1,59.4z M127.4,20.7c6,10,9.3,19.4,9.7,28c0.7,12.6-4.6,23.8-15.8,33.5C95.7,42.8,67.1,28,30.2,35.5
		C57.8,19.4,94.7,8.6,127.4,20.7z M21.7,79c-2.8-12.1-3.6-25-2.4-36.1c35.5-11.3,63.1-2.9,87.6,27C91.5,58.5,75.2,53.2,59.6,55
		C44.2,56.8,30.9,65.3,21.7,79z"/>
	
		<linearGradient id="SVGID_00000101091889830474836550000006145592748081333923_" gradientUnits="userSpaceOnUse" x1="218.8488" y1="193.8784" x2="-6.6046" y2="-44.3854" gradientTransform="matrix(1 0 0 -1 0 202)">
		<stop  offset="0" style="stop-color:#6B09EA"/>
		<stop  offset="1" style="stop-color:#5709DE"/>
	</linearGradient>
	<path style="fill:url(#SVGID_00000101091889830474836550000006145592748081333923_);" d="M185.5,47.4c-0.2-3.9-0.5-6.5-0.5-6.5
		c-0.1-0.6-0.4-1.2-0.9-1.5c-10.9-8.2-25.5-15.1-40.1-18.9c-1.9-0.5-3.5,1.6-2.5,3.3c8.8,14.9,10.3,31.1,4.1,45.5
		c-7.8,18-26.7,31.2-53.4,37.3c0,0,0,0,0,0c-1.1,0.2-1.9,1.3-1.7,2.5c4.3,28.4,23.7,43,55.8,42.2c0.5,0,1-0.2,1.3-0.5
		C186.2,119.4,186.3,63.8,185.5,47.4z M149.7,71c6.1-14.2,5.5-30-1.8-44.8c11.9,3.7,23.4,9.3,32.4,16c-8,36.3-29.1,56.1-67.2,62.4
		C130.8,96.9,143.5,85.3,149.7,71z M145.5,146.8c-28.7,0.5-45.6-11.6-50.2-36c46.9-2.5,74-19.7,86-55.3
		C181.3,76.6,177.2,120.6,145.5,146.8z"/>
</g>
</svg>
