<?xml version="1.0" encoding="utf-8"?>
<!-- Generator: Adobe Illustrator 26.0.2, SVG Export Plug-In . SVG Version: 6.00 Build 0)  -->
<svg version="1.1" id="OBJECTS" xmlns="http://www.w3.org/2000/svg" xmlns:xlink="http://www.w3.org/1999/xlink" x="0px" y="0px"
	 viewBox="0 0 750 500" style="enable-background:new 0 0 750 500;" xml:space="preserve">
<style type="text/css">
	.st0{opacity:0.47;}
	.st1{fill:#FEA7AF;}
	.st2{opacity:0.29;fill:#FFFFFF;}
	.st3{opacity:0.29;fill:#FEA7AF;}
	.st4{fill:#FFFFFF;}
	.st5{opacity:0.33;fill:#FEA7AF;}
	.st6{opacity:0.44;fill:#FEA7AF;}
	.st7{opacity:0.89;fill:#FEA7AF;}
	.st8{opacity:0.15;fill:#FFFFFF;}
	.st9{opacity:0.66;fill:#FFFFFF;}
	.st10{opacity:0.37;fill:#FEA7AF;}
	.st11{opacity:0.32;fill:#FFFFFF;}
	.st12{opacity:0.33;fill:#FFFFFF;}
	.st13{fill:url(#XMLID_00000128452888244110121390000007844899185382742178_);}
	.st14{fill:url(#XMLID_00000176008151234520691200000001010870469754175414_);}
	.st15{opacity:0.35;}
	.st16{fill:url(#XMLID_00000052787140789447958710000004455005315276808109_);}
	.st17{fill:url(#XMLID_00000002384847866606782220000011118647613614098600_);}
	.st18{fill:url(#XMLID_00000007411811512980747340000002990381850703046299_);}
	.st19{fill:url(#XMLID_00000088835605286206572990000008208617251412471703_);}
	.st20{opacity:0.22;}
	.st21{fill:url(#XMLID_00000067935290119790150200000001306935397176688286_);}
	.st22{fill:url(#XMLID_00000075864249351539680640000018356630674892512155_);}
	.st23{fill:none;}
	.st24{opacity:0.5;fill:url(#XMLID_00000016070970319880038400000006782526893836877700_);}
	.st25{fill:url(#XMLID_00000104701718673193193760000013062557490202086815_);}
</style>
<g id="XMLID_659_" class="st0">
	<polygon id="XMLID_708_" class="st1" points="502.4,167.7 503,168.7 504,169.3 503,169.9 502.4,170.9 501.8,169.9 500.8,169.3 
		501.8,168.7 	"/>
	<polygon id="XMLID_707_" class="st1" points="496.8,83.9 497.3,84.9 498.4,85.5 497.3,86.1 496.8,87.2 496.2,86.1 495.1,85.5 
		496.2,84.9 	"/>
	<polygon id="XMLID_706_" class="st2" points="633.3,104.9 634.5,107 636.6,108.2 634.5,109.3 633.3,111.4 632.2,109.3 630.1,108.2 
		632.2,107 	"/>
	<polygon id="XMLID_705_" class="st2" points="623.9,261.9 625,264 627.1,265.2 625,266.3 623.9,268.4 622.7,266.3 620.6,265.2 
		622.7,264 	"/>
	<polygon id="XMLID_704_" class="st3" points="545.4,85.6 545.9,86.6 546.9,87.2 545.9,87.7 545.4,88.7 544.8,87.7 543.8,87.2 
		544.8,86.6 	"/>
	<polygon id="XMLID_703_" class="st2" points="607.8,180.8 608.4,181.8 609.4,182.4 608.4,182.9 607.8,183.9 607.3,182.9 
		606.3,182.4 607.3,181.8 	"/>
	<polygon id="XMLID_702_" class="st2" points="569.7,47 570.3,48 571.3,48.5 570.3,49.1 569.7,50.1 569.2,49.1 568.2,48.5 569.2,48 
			"/>
	<polygon id="XMLID_701_" class="st4" points="550.8,219.7 551.3,220.6 552.2,221 551.3,221.5 550.8,222.4 550.3,221.5 549.5,221 
		550.3,220.6 	"/>
	<polygon id="XMLID_700_" class="st4" points="575.8,123.4 576.2,124.3 577.1,124.8 576.2,125.2 575.8,126.1 575.3,125.2 
		574.4,124.8 575.3,124.3 	"/>
	<polygon id="XMLID_699_" class="st5" points="496.8,223.3 497.4,224.5 498.5,225.1 497.4,225.7 496.8,226.8 496.1,225.7 495,225.1 
		496.1,224.5 	"/>
	<polygon id="XMLID_698_" class="st5" points="525.6,257.9 526.3,259 527.4,259.6 526.3,260.3 525.6,261.4 525,260.3 523.9,259.6 
		525,259 	"/>
	<polygon id="XMLID_697_" class="st5" points="522.1,131.1 522.8,132.2 523.9,132.9 522.8,133.5 522.1,134.6 521.5,133.5 
		520.4,132.9 521.5,132.2 	"/>
	<polygon id="XMLID_696_" class="st5" points="676.5,172.6 677.1,173.7 678.2,174.3 677.1,175 676.5,176.1 675.9,175 674.7,174.3 
		675.9,173.7 	"/>
	<polygon id="XMLID_695_" class="st1" points="47.8,178.4 48.4,179.4 49.4,180 48.4,180.6 47.8,181.7 47.2,180.6 46.2,180 
		47.2,179.4 	"/>
	<polygon id="XMLID_694_" class="st1" points="49.4,83.2 50,84.2 51.1,84.8 50,85.4 49.4,86.5 48.9,85.4 47.8,84.8 48.9,84.2 	"/>
	<polygon id="XMLID_693_" class="st6" points="197.4,228 197.7,228.6 198.4,229 197.7,229.4 197.4,230 197,229.4 196.4,229 
		197,228.6 	"/>
	<polygon id="XMLID_692_" class="st7" points="416.4,36.6 417,37.7 418.2,38.3 417,39 416.4,40.1 415.8,39 414.7,38.3 415.8,37.7 	
		"/>
	<polygon id="XMLID_691_" class="st7" points="273.7,45.3 274,45.9 274.6,46.3 274,46.6 273.7,47.2 273.3,46.6 272.7,46.3 
		273.3,45.9 	"/>
	<polygon id="XMLID_690_" class="st7" points="684.3,118.4 684.6,119 685.2,119.3 684.6,119.7 684.3,120.3 684,119.7 683.3,119.3 
		684,119 	"/>
	<polygon id="XMLID_689_" class="st2" points="176.5,86.1 177.7,88.2 179.8,89.4 177.7,90.5 176.5,92.6 175.4,90.5 173.3,89.4 
		175.4,88.2 	"/>
	<polygon id="XMLID_688_" class="st2" points="176.5,261.2 177.7,263.3 179.8,264.5 177.7,265.6 176.5,267.7 175.4,265.6 
		173.3,264.5 175.4,263.3 	"/>
	<polygon id="XMLID_687_" class="st3" points="98,84.9 98.6,85.9 99.6,86.5 98.6,87 98,88 97.5,87 96.5,86.5 97.5,85.9 	"/>
	<polygon id="XMLID_686_" class="st2" points="160.5,180.1 161.1,181.1 162.1,181.7 161.1,182.2 160.5,183.2 160,182.2 159,181.7 
		160,181.1 	"/>
	<polygon id="XMLID_685_" class="st2" points="122.4,46.3 122.9,47.3 123.9,47.8 122.9,48.4 122.4,49.4 121.9,48.4 120.9,47.8 
		121.9,47.3 	"/>
	<polygon id="XMLID_684_" class="st4" points="103.5,219 104,219.9 104.8,220.3 104,220.8 103.5,221.7 103,220.8 102.1,220.3 
		103,219.9 	"/>
	<polygon id="XMLID_683_" class="st8" points="128.4,122.7 128.9,123.6 129.8,124 128.9,124.5 128.4,125.4 128,124.5 127.1,124 
		128,123.6 	"/>
	<polygon id="XMLID_682_" class="st4" points="469.3,288.7 469.8,289.6 470.7,290.1 469.8,290.6 469.3,291.4 468.8,290.6 
		467.9,290.1 468.8,289.6 	"/>
	<polygon id="XMLID_681_" class="st4" points="659.9,47.2 660.4,48.1 661.3,48.5 660.4,49 659.9,49.9 659.4,49 658.6,48.5 
		659.4,48.1 	"/>
	<polygon id="XMLID_680_" class="st9" points="62.4,41 62.8,41.9 63.7,42.4 62.8,42.9 62.4,43.7 61.9,42.9 61,42.4 61.9,41.9 	"/>
	<polygon id="XMLID_679_" class="st9" points="246.6,272.3 247.1,273.2 248,273.7 247.1,274.2 246.6,275.1 246.1,274.2 245.2,273.7 
		246.1,273.2 	"/>
	<polygon id="XMLID_678_" class="st4" points="208.6,59.7 209,60.6 209.9,61 209,61.5 208.6,62.4 208.1,61.5 207.2,61 208.1,60.6 	
		"/>
	<polygon id="XMLID_677_" class="st5" points="49.4,222.6 50.1,223.8 51.2,224.4 50.1,225 49.4,226.1 48.8,225 47.7,224.4 
		48.8,223.8 	"/>
	<polygon id="XMLID_676_" class="st5" points="78.3,257.2 78.9,258.3 80.1,258.9 78.9,259.6 78.3,260.7 77.7,259.6 76.6,258.9 
		77.7,258.3 	"/>
	<polygon id="XMLID_675_" class="st5" points="282.9,304.2 283.5,305.4 284.7,306 283.5,306.6 282.9,307.7 282.3,306.6 281.2,306 
		282.3,305.4 	"/>
	<polygon id="XMLID_674_" class="st5" points="74.8,130.4 75.4,131.5 76.6,132.1 75.4,132.8 74.8,133.9 74.2,132.8 73.1,132.1 
		74.2,131.5 	"/>
	<polygon id="XMLID_673_" class="st5" points="229.2,171.9 229.8,173 230.9,173.6 229.8,174.2 229.2,175.4 228.5,174.2 227.4,173.6 
		228.5,173 	"/>
	<polygon id="XMLID_672_" class="st1" points="257.6,193.1 258.2,194.2 259.3,194.8 258.2,195.4 257.6,196.4 257.1,195.4 256,194.8 
		257.1,194.2 	"/>
	<polygon id="XMLID_671_" class="st10" points="249.6,133.4 250.2,134.5 251.2,135.1 250.2,135.6 249.6,136.7 249,135.6 248,135.1 
		249,134.5 	"/>
	<polygon id="XMLID_670_" class="st2" points="432.9,85 433.7,86.4 435.1,87.2 433.7,87.9 432.9,89.4 432.2,87.9 430.7,87.2 
		432.2,86.4 	"/>
	<polygon id="XMLID_669_" class="st2" points="386.4,276 387.5,278.1 389.6,279.2 387.5,280.4 386.4,282.5 385.2,280.4 383.1,279.2 
		385.2,278.1 	"/>
	<polygon id="XMLID_668_" class="st3" points="307.9,99.7 308.4,100.7 309.4,101.2 308.4,101.8 307.9,102.8 307.3,101.8 
		306.3,101.2 307.3,100.7 	"/>
	<polygon id="XMLID_667_" class="st2" points="370.4,194.9 370.9,195.9 371.9,196.4 370.9,197 370.4,198 369.8,197 368.8,196.4 
		369.8,195.9 	"/>
	<polygon id="XMLID_666_" class="st2" points="332.2,61 332.8,62 333.8,62.6 332.8,63.1 332.2,64.1 331.7,63.1 330.7,62.6 331.7,62 
			"/>
	<polygon id="XMLID_665_" class="st11" points="307.9,236 308.4,236.9 309.2,237.4 308.4,237.9 307.9,238.8 307.4,237.9 
		306.5,237.4 307.4,236.9 	"/>
	<polygon id="XMLID_664_" class="st12" points="324.2,122.7 324.7,123.6 325.5,124 324.7,124.5 324.2,125.4 323.7,124.5 322.8,124 
		323.7,123.6 	"/>
	<polygon id="XMLID_663_" class="st5" points="259.3,237.4 259.9,238.5 261,239.1 259.9,239.8 259.3,240.9 258.7,239.8 257.5,239.1 
		258.7,238.5 	"/>
	<polygon id="XMLID_662_" class="st5" points="288.2,272 288.8,273.1 289.9,273.7 288.8,274.3 288.2,275.4 287.5,274.3 286.4,273.7 
		287.5,273.1 	"/>
	<polygon id="XMLID_661_" class="st5" points="284.7,145.2 285.3,146.3 286.4,146.9 285.3,147.5 284.7,148.7 284,147.5 282.9,146.9 
		284,146.3 	"/>
	<polygon id="XMLID_660_" class="st5" points="446.3,138.4 446.9,139.5 448,140.2 446.9,140.8 446.3,141.9 445.7,140.8 444.6,140.2 
		445.7,139.5 	"/>
</g>
<g id="XMLID_656_">
	
		<linearGradient id="XMLID_00000029017090811206347180000016533454327834559667_" gradientUnits="userSpaceOnUse" x1="-902.1321" y1="923.6115" x2="-836.6073" y2="923.6115" gradientTransform="matrix(-0.7476 -0.6641 0.6641 -0.7476 -1063.5243 289.264)">
		<stop  offset="5.376340e-03" style="stop-color:#FEA7AF"/>
		<stop  offset="0.9946" style="stop-color:#EA47AC;stop-opacity:0"/>
	</linearGradient>
	<path id="XMLID_658_" style="fill:url(#XMLID_00000029017090811206347180000016533454327834559667_);" d="M177.8,154.2l46.5,42.7
		c0.3,0.2,0.3,0.6,0,0.9l0,0c-0.2,0.3-0.6,0.3-0.9,0.1l-47.9-41.1c-0.7-0.6-0.8-1.7-0.2-2.5v0C175.9,153.6,177,153.6,177.8,154.2z"
		/>
	
		<linearGradient id="XMLID_00000137095567379111340440000005838172170869407115_" gradientUnits="userSpaceOnUse" x1="-901.2881" y1="923.6119" x2="-861.1343" y2="923.6119" gradientTransform="matrix(-0.7476 -0.6641 0.6641 -0.7476 -1063.5243 289.264)">
		<stop  offset="5.376340e-03" style="stop-color:#FEA7AF"/>
		<stop  offset="0.9946" style="stop-color:#EA47AC;stop-opacity:0"/>
	</linearGradient>
	<path id="XMLID_657_" style="fill:url(#XMLID_00000137095567379111340440000005838172170869407115_);" d="M195.1,170.6l28.5,26.2
		c0.2,0.1,0.2,0.4,0,0.6l0,0c-0.1,0.2-0.4,0.2-0.6,0l-29.4-25.2c-0.5-0.4-0.5-1.1-0.1-1.5h0C194,170.2,194.7,170.2,195.1,170.6z"/>
</g>
<g id="XMLID_643_" class="st15">
	<g id="XMLID_647_">
		
			<linearGradient id="XMLID_00000161624801039724437670000003916652407454235525_" gradientUnits="userSpaceOnUse" x1="-1083.7444" y1="1157.6799" x2="-1028.6799" y2="1157.6799" gradientTransform="matrix(-0.7476 -0.6641 0.6641 -0.7476 -1063.5243 289.264)">
			<stop  offset="5.376340e-03" style="stop-color:#FEA7AF"/>
			<stop  offset="0.9946" style="stop-color:#EA47AC;stop-opacity:0"/>
		</linearGradient>
		<path id="XMLID_655_" style="fill:url(#XMLID_00000161624801039724437670000003916652407454235525_);" d="M476.4,106.8l39.1,35.9
			c0.2,0.2,0.2,0.5,0,0.8l0,0c-0.2,0.2-0.5,0.2-0.8,0.1L474.5,109c-0.6-0.5-0.7-1.5-0.1-2.1l0,0
			C474.9,106.3,475.8,106.3,476.4,106.8z"/>
		
			<linearGradient id="XMLID_00000123428323895043876660000013430733868202847934_" gradientUnits="userSpaceOnUse" x1="-1083.0352" y1="1157.6803" x2="-1049.2914" y2="1157.6803" gradientTransform="matrix(-0.7476 -0.6641 0.6641 -0.7476 -1063.5243 289.264)">
			<stop  offset="5.376340e-03" style="stop-color:#FEA7AF"/>
			<stop  offset="0.9946" style="stop-color:#EA47AC;stop-opacity:0"/>
		</linearGradient>
		<path id="XMLID_654_" style="fill:url(#XMLID_00000123428323895043876660000013430733868202847934_);" d="M491,120.6l23.9,22
			c0.1,0.1,0.1,0.3,0,0.5l0,0c-0.1,0.1-0.3,0.1-0.5,0l-24.7-21.2c-0.4-0.3-0.4-0.9-0.1-1.3l0,0C490.1,120.2,490.6,120.2,491,120.6z"
			/>
	</g>
	<g id="XMLID_644_">
		
			<linearGradient id="XMLID_00000083074408595972444210000004602490686035849361_" gradientUnits="userSpaceOnUse" x1="-1047.3467" y1="1146.6934" x2="-1022.0819" y2="1146.6934" gradientTransform="matrix(-0.7476 -0.6641 0.6641 -0.7476 -1063.5243 289.264)">
			<stop  offset="5.376340e-03" style="stop-color:#FEA7AF"/>
			<stop  offset="0.9946" style="stop-color:#EA47AC;stop-opacity:0"/>
		</linearGradient>
		<path id="XMLID_646_" style="fill:url(#XMLID_00000083074408595972444210000004602490686035849361_);" d="M463.1,110.7l17.9,16.5
			c0.1,0.1,0.1,0.2,0,0.3l0,0c-0.1,0.1-0.2,0.1-0.3,0l-18.5-15.8c-0.3-0.2-0.3-0.7-0.1-1l0,0C462.4,110.5,462.8,110.5,463.1,110.7z"
			/>
		
			<linearGradient id="XMLID_00000068662126631212794440000013260343933311200429_" gradientUnits="userSpaceOnUse" x1="-1047.0211" y1="1146.6936" x2="-1031.5388" y2="1146.6936" gradientTransform="matrix(-0.7476 -0.6641 0.6641 -0.7476 -1063.5243 289.264)">
			<stop  offset="5.376340e-03" style="stop-color:#FEA7AF"/>
			<stop  offset="0.9946" style="stop-color:#EA47AC;stop-opacity:0"/>
		</linearGradient>
		<path id="XMLID_645_" style="fill:url(#XMLID_00000068662126631212794440000013260343933311200429_);" d="M469.8,117l11,10.1
			c0.1,0.1,0.1,0.2,0,0.2l0,0c-0.1,0.1-0.2,0.1-0.2,0l-11.3-9.7c-0.2-0.1-0.2-0.4,0-0.6l0,0C469.3,116.9,469.6,116.9,469.8,117z"/>
	</g>
</g>
<g id="XMLID_640_" class="st20">
	
		<linearGradient id="XMLID_00000119081359024714881360000012997476313955526297_" gradientUnits="userSpaceOnUse" x1="-742.6454" y1="835.9399" x2="-668.9246" y2="835.9399" gradientTransform="matrix(-0.7476 -0.6641 0.6641 -0.7476 -1063.5243 289.264)">
		<stop  offset="5.376340e-03" style="stop-color:#FEA7AF"/>
		<stop  offset="0.9946" style="stop-color:#EA47AC;stop-opacity:0"/>
	</linearGradient>
	<path id="XMLID_642_" style="fill:url(#XMLID_00000119081359024714881360000012997476313955526297_);" d="M-5.5,108.4l52.3,48
		c0.3,0.3,0.3,0.7,0.1,1l0,0c-0.3,0.3-0.7,0.3-1,0.1l-53.9-46.2c-0.8-0.7-0.9-2-0.2-2.8l0,0C-7.6,107.7-6.3,107.7-5.5,108.4z"/>
	
		<linearGradient id="XMLID_00000050642014033451022880000010733826663519323539_" gradientUnits="userSpaceOnUse" x1="-741.6958" y1="835.9404" x2="-696.5195" y2="835.9404" gradientTransform="matrix(-0.7476 -0.6641 0.6641 -0.7476 -1063.5243 289.264)">
		<stop  offset="5.376340e-03" style="stop-color:#FEA7AF"/>
		<stop  offset="0.9946" style="stop-color:#EA47AC;stop-opacity:0"/>
	</linearGradient>
	<path id="XMLID_641_" style="fill:url(#XMLID_00000050642014033451022880000010733826663519323539_);" d="M14,126.8l32.1,29.4
		c0.2,0.2,0.2,0.4,0,0.6l0,0c-0.2,0.2-0.4,0.2-0.6,0l-33.1-28.3c-0.5-0.4-0.6-1.2-0.1-1.7l0,0C12.8,126.4,13.6,126.3,14,126.8z"/>
</g>
<g id="XMLID_618_">
	
		<image style="overflow:visible;" width="893" height="893" xlink:href="5CCED472.png"  transform="matrix(0.24 0 0 0.24 521.84 79.56)">
	</image>
</g>
<g id="XMLID_596_">
	
		<image style="overflow:visible;" width="763" height="764" xlink:href="5CCED476.png"  transform="matrix(0.24 0 0 0.24 38.24 104.76)">
	</image>
</g>
<rect id="XMLID_595_" x="24.8" y="28" class="st23" width="691.3" height="444"/>
<radialGradient id="XMLID_00000129190194700878714630000012209253030889743771_" cx="616.4415" cy="204.7566" r="101.3732" gradientUnits="userSpaceOnUse">
	<stop  offset="5.376340e-03" style="stop-color:#F26FAD"/>
	<stop  offset="2.684546e-02" style="stop-color:#E66AA5"/>
	<stop  offset="0.1345" style="stop-color:#B1517F"/>
	<stop  offset="0.2462" style="stop-color:#823B5D"/>
	<stop  offset="0.3599" style="stop-color:#5A2940"/>
	<stop  offset="0.476" style="stop-color:#391A29"/>
	<stop  offset="0.5952" style="stop-color:#200F17"/>
	<stop  offset="0.7188" style="stop-color:#0E060A"/>
	<stop  offset="0.8497" style="stop-color:#030202"/>
	<stop  offset="1" style="stop-color:#000000"/>
</radialGradient>
<circle id="XMLID_366_" style="opacity:0.5;fill:url(#XMLID_00000129190194700878714630000012209253030889743771_);" cx="616.4" cy="204.8" r="101.4"/>
<radialGradient id="XMLID_00000104690135787046198960000012067892346810158732_" cx="223.2019" cy="197.2445" r="7.702" gradientUnits="userSpaceOnUse">
	<stop  offset="5.376340e-03" style="stop-color:#F26FAD"/>
	<stop  offset="2.684546e-02" style="stop-color:#E66AA5"/>
	<stop  offset="0.1345" style="stop-color:#B1517F"/>
	<stop  offset="0.2462" style="stop-color:#823B5D"/>
	<stop  offset="0.3599" style="stop-color:#5A2940"/>
	<stop  offset="0.476" style="stop-color:#391A29"/>
	<stop  offset="0.5952" style="stop-color:#200F17"/>
	<stop  offset="0.7188" style="stop-color:#0E060A"/>
	<stop  offset="0.8497" style="stop-color:#030202"/>
	<stop  offset="1" style="stop-color:#000000"/>
</radialGradient>
<circle id="XMLID_29_" style="fill:url(#XMLID_00000104690135787046198960000012067892346810158732_);" cx="223.2" cy="197.2" r="7.7"/>
<rect id="XMLID_26_" x="24.8" y="28" class="st23" width="691.3" height="444"/>
</svg>
