<svg xmlns="http://www.w3.org/2000/svg" xmlns:xlink="http://www.w3.org/1999/xlink" viewBox="0 0 2798.17 2877.16"><defs><style>.cls-1{fill:#d8dee8;}.cls-2{fill:url(#linear-gradient);}.cls-3{fill:none;}.cls-4{isolation:isolate;}.cls-5{fill:#f4f7fa;}.cls-6{fill:url(#linear-gradient-2);}.cls-7{clip-path:url(#clip-path);}.cls-22,.cls-8{fill:#fff;}.cls-11,.cls-48,.cls-8{mix-blend-mode:soft-light;}.cls-11,.cls-8{opacity:0.7;}.cls-9{fill:url(#linear-gradient-3);}.cls-10{clip-path:url(#clip-path-2);}.cls-12{fill:#fcfdfe;}.cls-13{fill:url(#linear-gradient-5);}.cls-14,.cls-15,.cls-16{fill:#97a6b7;}.cls-15,.cls-16,.cls-50,.cls-61,.cls-70{mix-blend-mode:multiply;}.cls-15{opacity:0.5;}.cls-16{opacity:0.1;}.cls-17{fill:url(#linear-gradient-6);}.cls-18{fill:url(#linear-gradient-7);}.cls-19{fill:url(#linear-gradient-8);}.cls-20{fill:url(#linear-gradient-9);}.cls-21{fill:url(#linear-gradient-10);}.cls-23{fill:url(#linear-gradient-11);}.cls-24{fill:url(#linear-gradient-12);}.cls-25{fill:url(#linear-gradient-13);}.cls-26{fill:url(#linear-gradient-14);}.cls-27{fill:url(#linear-gradient-15);}.cls-28{fill:url(#linear-gradient-16);}.cls-29{fill:url(#linear-gradient-17);}.cls-30{fill:url(#linear-gradient-18);}.cls-31{fill:url(#linear-gradient-19);}.cls-32{fill:url(#linear-gradient-20);}.cls-33{fill:url(#linear-gradient-21);}.cls-34{fill:url(#linear-gradient-22);}.cls-35{fill:url(#linear-gradient-23);}.cls-36{fill:url(#linear-gradient-24);}.cls-37{mix-blend-mode:overlay;}.cls-37,.cls-50{opacity:0.3;}.cls-38{fill:url(#linear-gradient-25);}.cls-39{fill:url(#linear-gradient-26);}.cls-40{fill:url(#linear-gradient-27);}.cls-41{fill:url(#linear-gradient-28);}.cls-42{fill:url(#linear-gradient-29);}.cls-43{clip-path:url(#clip-path-3);}.cls-44{fill:url(#linear-gradient-30);}.cls-45{clip-path:url(#clip-path-4);}.cls-46{fill:url(#linear-gradient-31);}.cls-47{fill:url(#linear-gradient-32);}.cls-48{opacity:0.48;}.cls-49{fill:url(#linear-gradient-33);}.cls-51{fill:url(#linear-gradient-34);}.cls-52{fill:url(#linear-gradient-35);}.cls-53{fill:url(#linear-gradient-36);}.cls-54{fill:url(#linear-gradient-37);}.cls-55{fill:url(#linear-gradient-38);}.cls-56{fill:url(#linear-gradient-39);}.cls-57{fill:#26264f;}.cls-58{fill:url(#linear-gradient-40);}.cls-59{fill:url(#linear-gradient-41);}.cls-60{fill:url(#linear-gradient-42);}.cls-61{opacity:0.25;fill:url(#linear-gradient-43);}.cls-62{fill:#444b8c;}.cls-63{fill:url(#linear-gradient-44);}.cls-64{fill:url(#linear-gradient-45);}.cls-65{fill:url(#linear-gradient-46);}.cls-66{fill:url(#linear-gradient-47);}.cls-67{fill:url(#linear-gradient-48);}.cls-68{fill:url(#linear-gradient-49);}.cls-69{fill:url(#linear-gradient-50);}.cls-70{opacity:0.4;fill:url(#linear-gradient-51);}</style><linearGradient id="linear-gradient" x1="1889.1" y1="1572.15" x2="3000.92" y2="1572.15" gradientUnits="userSpaceOnUse"><stop offset="0" stop-color="#ff9085"/><stop offset="1" stop-color="#fb6fbb"/></linearGradient><linearGradient id="linear-gradient-2" x1="1966.66" y1="2832.33" x2="2898.38" y2="2832.33" gradientUnits="userSpaceOnUse"><stop offset="0" stop-color="#aa80f9"/><stop offset="1" stop-color="#6165d7"/></linearGradient><clipPath id="clip-path" transform="translate(-511.6 -472.9)"><path class="cls-1" d="M1364.58,2317.61c-58.53-106.3,5.71-279,81.35-379,88.32-116.81,156.72-87.78,218.33-184,114.72-179.09-75.35-353.17,26-542.95,82.86-155.14,241.33-97.67,325.28-273.66,60.57-127,7.18-217.94,96.33-311.1,7.62-8,91-92.67,189.09-74.27,98.95,18.57,154.93,131.32,172.15,208.58,31.83,142.82-64,185.72-88.4,368.87-33.22,249.35,124.76,317.45,62.35,496-51.53,147.44-171.14,135-225,299.63-50,152.87,34.91,219.13-8.61,318.74C2113.32,2473.64,1484,2534.42,1364.58,2317.61Z"/></clipPath><linearGradient id="linear-gradient-3" x1="62.72" y1="-257.75" x2="571.46" y2="2994.57" gradientTransform="matrix(-0.83, -0.56, -0.56, 0.83, 2982.37, 1284.4)" xlink:href="#linear-gradient"/><clipPath id="clip-path-2" transform="translate(-511.6 -472.9)"><path class="cls-2" d="M2114.42,2402.27c-18.56-1.58-57.52-21.37-65.56-30.72-53.44-62.21-161.07-172.19-159.74-258.88.22-14.81,65.62-31.39,74.28-45.35,39.13-20.7,54-25.45,81.53-63.4,81.29-112-123.73-306.83,101.39-388.25,164.9-59.64,308.61-8.2,279.31-266.94s155.9-740.64,437.84-571.55c161.8,97,11.76,324.7,99.78,484,83.64,151.34,23.61,281.55-136.67,381.55s-69.4,167.54-15.23,312.46c65.07,174.09-205.21,217.22-331.69,226.48C2377.81,2189.09,2123.5,2276.81,2114.42,2402.27Z"/></clipPath><linearGradient id="linear-gradient-5" x1="1299.06" y1="1125.15" x2="1677.17" y2="1125.15" gradientUnits="userSpaceOnUse"><stop offset="0.49" stop-color="#ebeff2"/><stop offset="1" stop-color="#fff"/></linearGradient><linearGradient id="linear-gradient-6" x1="1487.4" y1="1407" x2="2770.96" y2="1407" gradientUnits="userSpaceOnUse"><stop offset="0" stop-color="#fcb148"/><stop offset="0.05" stop-color="#fdba46"/><stop offset="0.14" stop-color="#ffc244"/><stop offset="0.32" stop-color="#ffc444"/><stop offset="0.48" stop-color="#fdb946"/><stop offset="0.78" stop-color="#f99c4d"/><stop offset="0.87" stop-color="#f8924f"/><stop offset="1" stop-color="#f8924f"/></linearGradient><linearGradient id="linear-gradient-7" x1="912.7" y1="1542.72" x2="1176.51" y2="1542.72" gradientUnits="userSpaceOnUse"><stop offset="0" stop-color="#40447e"/><stop offset="1" stop-color="#3c3b6b"/></linearGradient><linearGradient id="linear-gradient-8" x1="1813.26" y1="2175.06" x2="2209.71" y2="2175.06" xlink:href="#linear-gradient-7"/><linearGradient id="linear-gradient-9" x1="5279.36" y1="2100.12" x2="5414.71" y2="2100.12" gradientTransform="matrix(-1, 0, 0, 1, 6905.22, 0)" gradientUnits="userSpaceOnUse"><stop offset="0" stop-color="#444b8c"/><stop offset="1" stop-color="#3e4177"/></linearGradient><linearGradient id="linear-gradient-10" x1="5525.28" y1="1868.07" x2="5332.67" y2="2245.67" gradientTransform="matrix(-1, 0, 0, 1, 6905.22, 0)" gradientUnits="userSpaceOnUse"><stop offset="0" stop-color="#ebeff2"/><stop offset="0.99" stop-color="#b7c0ce"/></linearGradient><linearGradient id="linear-gradient-11" x1="4756.49" y1="2308.38" x2="4921.46" y2="2308.38" xlink:href="#linear-gradient-9"/><linearGradient id="linear-gradient-12" x1="5056.23" y1="2025.53" x2="4821.46" y2="2485.78" xlink:href="#linear-gradient-10"/><linearGradient id="linear-gradient-13" x1="1303.9" y1="1957.97" x2="2792.17" y2="1957.97" xlink:href="#linear-gradient-6"/><linearGradient id="linear-gradient-14" x1="1359.36" y1="2319.22" x2="1939.6" y2="1725.16" xlink:href="#linear-gradient-7"/><linearGradient id="linear-gradient-15" x1="1354.57" y1="1850.25" x2="1424.3" y2="1850.25" xlink:href="#linear-gradient-6"/><linearGradient id="linear-gradient-16" x1="1360.71" y1="1849.94" x2="1418.16" y2="1849.94" xlink:href="#linear-gradient-7"/><linearGradient id="linear-gradient-17" x1="1623.54" y1="1939.03" x2="1747.61" y2="1939.03" xlink:href="#linear-gradient-6"/><linearGradient id="linear-gradient-18" x1="1638.9" y1="1934.58" x2="1732.26" y2="1934.58" xlink:href="#linear-gradient-7"/><linearGradient id="linear-gradient-19" x1="2066.25" y1="2077.01" x2="2257.39" y2="2077.01" xlink:href="#linear-gradient-6"/><linearGradient id="linear-gradient-20" x1="2087.74" y1="2070.68" x2="2235.9" y2="2070.68" xlink:href="#linear-gradient-7"/><linearGradient id="linear-gradient-21" x1="2942.33" y1="2327.11" x2="2322.15" y2="828.83" xlink:href="#linear-gradient-6"/><linearGradient id="linear-gradient-22" x1="1843.99" y1="1345.59" x2="2742.42" y2="1345.59" xlink:href="#linear-gradient-7"/><linearGradient id="linear-gradient-23" x1="2551.64" y1="2241.43" x2="2488.19" y2="2556.64" gradientUnits="userSpaceOnUse"><stop offset="0" stop-color="#e38ddd"/><stop offset="1" stop-color="#9571f6"/></linearGradient><linearGradient id="linear-gradient-24" x1="3124.91" y1="2356.83" x2="3061.46" y2="2672.04" xlink:href="#linear-gradient-23"/><linearGradient id="linear-gradient-25" x1="2752.07" y1="2876.94" x2="2756.16" y2="2453.24" xlink:href="#linear-gradient-2"/><linearGradient id="linear-gradient-26" x1="2390.26" y1="2469.92" x2="3229.45" y2="2469.92" xlink:href="#linear-gradient-7"/><linearGradient id="linear-gradient-27" x1="750.37" y1="2290.13" x2="1878.38" y2="2290.13" gradientTransform="translate(-147.34 -31.91) rotate(2.13)" gradientUnits="userSpaceOnUse"><stop offset="0" stop-color="#444b8c"/><stop offset="1" stop-color="#26264f"/></linearGradient><linearGradient id="linear-gradient-28" x1="1239.29" y1="2560.49" x2="1395.12" y2="2127.92" xlink:href="#linear-gradient-27"/><linearGradient id="linear-gradient-29" x1="1275.41" y1="1355.69" x2="317.8" y2="3949.19" gradientTransform="translate(-147.34 -31.91) rotate(2.13)" gradientUnits="userSpaceOnUse"><stop offset="0" stop-color="#ffc444"/><stop offset="1" stop-color="#f36f56"/></linearGradient><clipPath id="clip-path-3" transform="translate(-511.6 -472.9)"><path class="cls-3" d="M1453.87,1460.37l-807.66,19.31c-20.93.5-36.51,17.34-34.76,37.62L753.19,3156.94c1.76,20.36,20.13,35.36,41,33.5l804.75-71.75a35.74,35.74,0,0,0,32.3-38.8L1492.53,1495C1490.81,1475.41,1473.52,1459.9,1453.87,1460.37Z"/></clipPath><linearGradient id="linear-gradient-30" x1="279.37" y1="1078.55" x2="1014.41" y2="2387.88" gradientTransform="matrix(1, 0, 0.09, 1, -189.31, -472.94)" xlink:href="#linear-gradient"/><clipPath id="clip-path-4" transform="translate(-511.6 -472.9)"><polygon class="cls-3" points="1634.34 3115.53 756.38 3193.81 642.03 1871.08 1522.46 1836.99 1634.34 3115.53"/></clipPath><linearGradient id="linear-gradient-31" x1="1181.34" y1="2938.27" x2="1648.85" y2="2938.27" xlink:href="#linear-gradient-2"/><linearGradient id="linear-gradient-32" x1="710.34" y1="2228.79" x2="1190.6" y2="2228.79" xlink:href="#linear-gradient-2"/><linearGradient id="linear-gradient-33" x1="1157.24" y1="2200.8" x2="1328.94" y2="2643.06" xlink:href="#linear-gradient-2"/><linearGradient id="linear-gradient-34" x1="1095.76" y1="2224.67" x2="1267.46" y2="2666.93" xlink:href="#linear-gradient-2"/><linearGradient id="linear-gradient-35" x1="1223.92" y1="2540.05" x2="1112.4" y2="2709.32" gradientTransform="translate(2189.44 -70.01) rotate(45)" xlink:href="#linear-gradient-2"/><linearGradient id="linear-gradient-36" x1="1241.59" y1="2721.14" x2="1646.22" y2="2721.14" xlink:href="#linear-gradient-2"/><linearGradient id="linear-gradient-37" x1="1523.35" y1="1815.93" x2="1489.81" y2="1870.18" gradientTransform="translate(-131.4)" xlink:href="#linear-gradient-29"/><linearGradient id="linear-gradient-38" x1="2001" y1="2457.98" x2="2014.54" y2="2485.83" gradientTransform="translate(-642.99 -472.9)" xlink:href="#linear-gradient-29"/><linearGradient id="linear-gradient-39" x1="716.96" y1="3167.09" x2="716.96" y2="3079.74" gradientTransform="translate(1118.16)" xlink:href="#linear-gradient-29"/><linearGradient id="linear-gradient-40" x1="450.7" y1="3191.99" x2="450.7" y2="3086.71" gradientTransform="translate(1118.16)" xlink:href="#linear-gradient-29"/><linearGradient id="linear-gradient-41" x1="391.8" y1="2778.43" x2="736.24" y2="2778.43" gradientTransform="translate(1118.16)" gradientUnits="userSpaceOnUse"><stop offset="0" stop-color="#311944"/><stop offset="1" stop-color="#893976"/></linearGradient><linearGradient id="linear-gradient-42" x1="380.85" y1="2521.67" x2="629" y2="2938.47" xlink:href="#linear-gradient-41"/><linearGradient id="linear-gradient-43" x1="478.54" y1="2463.51" x2="726.69" y2="2880.3" xlink:href="#linear-gradient-41"/><linearGradient id="linear-gradient-44" x1="388.63" y1="-3562.92" x2="651.43" y2="-3022.5" gradientTransform="translate(2659.92 -1269.08) rotate(-172.14)" xlink:href="#linear-gradient-2"/><linearGradient id="linear-gradient-45" x1="1675.98" y1="2073.97" x2="1942.14" y2="2621.29" gradientTransform="translate(-131.4)" xlink:href="#linear-gradient-2"/><linearGradient id="linear-gradient-46" x1="542.34" y1="2005.49" x2="593.2" y2="2086.34" gradientTransform="translate(1118.16)" xlink:href="#linear-gradient-23"/><linearGradient id="linear-gradient-47" x1="603.74" y1="1993.09" x2="547.84" y2="2083.52" gradientTransform="translate(1118.16)" xlink:href="#linear-gradient-29"/><linearGradient id="linear-gradient-48" x1="-26.41" y1="1372.99" x2="-80.5" y2="1460.5" gradientTransform="translate(1403.38 640.48) rotate(-13.66)" xlink:href="#linear-gradient-29"/><linearGradient id="linear-gradient-49" x1="1829.38" y1="1676.89" x2="2153.04" y2="2191.34" gradientTransform="translate(-131.4)" xlink:href="#linear-gradient"/><linearGradient id="linear-gradient-50" x1="1646.36" y1="2086.73" x2="1908.14" y2="2625.04" gradientTransform="translate(-131.4)" xlink:href="#linear-gradient-2"/><linearGradient id="linear-gradient-51" x1="1637.54" y1="2092.67" x2="1903.71" y2="2639.99" gradientTransform="translate(-131.4)" xlink:href="#linear-gradient-2"/></defs><g class="cls-4"><g id="Illustration"><path class="cls-5" d="M2637.11,731c94,134.53-16.22,352.65,123.23,453.83,135.74,98.49,302.5-63,430.43,21.83,189.77,125.77,155.11,701.27-122.35,1058.83-83.44,107.54-153.16,149.38-184,271-66.3,261.14,166.73,416.48,122.38,545.63C2906.91,3372.9,1371.29,3616.92,755.12,2743c-287.77-408.18-330.83-997.6-73.71-1445.27C1146,488.76,2426.24,429.1,2637.11,731Z" transform="translate(-511.6 -472.9)"/><path class="cls-6" d="M1983.74,3206.32a17.1,17.1,0,0,1-.82-34.17c.32,0,33.11-1.66,85.13-6.51a17.1,17.1,0,1,1,3.18,34.05c-52.84,4.93-85.28,6.55-86.64,6.61C1984.31,3206.32,1984,3206.32,1983.74,3206.32Zm171.17-15.72a17.1,17.1,0,0,1-2-34.08c28.44-3.45,56.85-7.32,84.44-11.48a17.1,17.1,0,1,1,5.11,33.81c-27.92,4.21-56.66,8.12-85.42,11.62A16.4,16.4,0,0,1,2154.91,3190.6Zm169.46-25.67a17.1,17.1,0,0,1-3.08-33.92c28.6-5.26,56.64-10.94,83.35-16.9a17.09,17.09,0,1,1,7.44,33.37c-27.12,6.05-55.58,11.83-84.6,17.16A16.6,16.6,0,0,1,2324.37,3164.93Zm167.16-37.54a17.1,17.1,0,0,1-4.47-33.6c28.37-7.72,55.62-16,81-24.53a17.1,17.1,0,1,1,10.93,32.41c-26,8.77-53.93,17.22-83,25.12A17,17,0,0,1,2491.53,3127.39Zm162-55.26a17.1,17.1,0,0,1-6.76-32.81,706.77,706.77,0,0,0,74.77-37.19,17.1,17.1,0,0,1,17.16,29.59,743.15,743.15,0,0,1-78.42,39A17.18,17.18,0,0,1,2653.56,3072.13ZM2800,2984.94a17.1,17.1,0,0,1-11.23-30c22-19.1,39.35-39.38,51.67-60.28a17.1,17.1,0,1,1,29.45,17.37c-14.19,24.07-33.93,47.19-58.68,68.71A17,17,0,0,1,2800,2984.94Zm80.77-144.68c-.42,0-.85,0-1.28-.05a17.09,17.09,0,0,1-15.79-18.31c.31-4.1.46-8.28.46-12.42,0-20.69-3.82-42.53-11.35-64.92a17.09,17.09,0,1,1,32.4-10.9c8.72,25.9,13.15,51.41,13.15,75.82,0,5-.19,10-.55,14.94A17.11,17.11,0,0,1,2880.79,2840.26Zm-49.33-160.56a17.09,17.09,0,0,1-14.44-7.92,578.41,578.41,0,0,0-49.85-66.27,17.1,17.1,0,1,1,25.9-22.33,612.55,612.55,0,0,1,52.8,70.24,17.1,17.1,0,0,1-14.41,26.28Zm-110.29-130.11a17,17,0,0,1-11.84-4.77c-19.1-18.35-40.23-37.3-62.8-56.3a17.1,17.1,0,1,1,22-26.16c23.15,19.48,44.84,38.93,64.47,57.81a17.09,17.09,0,0,1-11.85,29.42Z" transform="translate(-511.6 -472.9)"/><path class="cls-1" d="M1364.58,2317.61c-58.53-106.3,5.71-279,81.35-379,88.32-116.81,156.72-87.78,218.33-184,114.72-179.09-75.35-353.17,26-542.95,82.86-155.14,241.33-97.67,325.28-273.66,60.57-127,7.18-217.94,96.33-311.1,7.62-8,91-92.67,189.09-74.27,98.95,18.57,154.93,131.32,172.15,208.58,31.83,142.82-64,185.72-88.4,368.87-33.22,249.35,124.76,317.45,62.35,496-51.53,147.44-171.14,135-225,299.63-50,152.87,34.91,219.13-8.61,318.74C2113.32,2473.64,1484,2534.42,1364.58,2317.61Z" transform="translate(-511.6 -472.9)"/><g class="cls-7"><path class="cls-8" d="M1443.16,2484.27a1.66,1.66,0,0,1,0-3.32c106.83-8.4,207.22-38.78,298.36-90.29,86.34-48.8,175.61-99.25,217.24-195.51,31.48-72.8,16.72-127.45-2-196.63-18.19-67.32-40.83-151.1-23.66-277.72,9.8-72.3,22-162.27,87.13-246,38-48.75,74-69.09,105.89-87,33.39-18.82,59.77-33.69,76-75,26.56-67.3,11.91-126.16-5-194.31-10.47-42.06-21.29-85.56-24.45-136.94C2163.81,837,2236.12,683.7,2387.62,526a1.67,1.67,0,0,1,2.4,2.31c-150.83,157-222.83,309.46-214,453.1,3.14,51.07,13.93,94.42,24.36,136.34,17.09,68.7,31.85,128,4.91,196.33-16.72,42.38-44.9,58.26-77.52,76.65-31.57,17.79-67.36,38-104.89,86.17-64.58,83-76.71,172.46-86.46,244.36-17.08,126,5.46,209.37,23.57,276.4,18.87,69.81,33.77,124.95,1.82,198.82-42.07,97.28-131.84,148-218.65,197.08-91.57,51.76-192.42,82.28-299.74,90.71Z" transform="translate(-511.6 -472.9)"/><path class="cls-8" d="M1993.6,1518.91a1.68,1.68,0,0,1-1.43-1c-80.64-196.8-90.08-347.72-83.79-439.66,6.83-99.76,33.15-153.71,33.42-154.25a1.66,1.66,0,0,1,3,1.48c-.27.53-26.35,54-33.09,153.23-6.24,91.55,3.21,241.85,83.56,437.94a1.66,1.66,0,0,1-.91,2.17A1.58,1.58,0,0,1,1993.6,1518.91Z" transform="translate(-511.6 -472.9)"/><path class="cls-8" d="M1928.6,1826a1.66,1.66,0,0,1-.27-3.28c109.88-26,205.08-69.78,282.94-130.1a597.7,597.7,0,0,0,152.76-175c66.56-115.57,74.4-218.46,74.47-219.49a1.67,1.67,0,0,1,1.78-1.54h0a1.66,1.66,0,0,1,1.54,1.77c-.07,1-8,104.69-74.9,220.92a601.12,601.12,0,0,1-153.61,176c-78.24,60.62-173.87,104.59-284.22,130.71A1.65,1.65,0,0,1,1928.6,1826Z" transform="translate(-511.6 -472.9)"/><path class="cls-8" d="M1838,2341.6a1.7,1.7,0,0,1-1-.43C1757.4,2268.75,1695.32,2190,1652.5,2107c-34.27-66.4-56.33-135.6-65.59-205.68-15.76-119.39,11.56-201.09,11.84-201.9a1.66,1.66,0,1,1,3.15,1.07c-.28.81-27.38,81.92-11.66,200.58,14.5,109.51,69.47,274.33,249,437.63a1.66,1.66,0,0,1-1.23,2.89Z" transform="translate(-511.6 -472.9)"/><path class="cls-8" d="M2177.59,958.48a1.66,1.66,0,0,1-.49-3.21C2257,924,2323.89,879.29,2376,822.38c41.72-45.53,74.14-98.93,96.35-158.72,37.84-101.88,32.83-188.14,32.78-189a1.66,1.66,0,0,1,1.55-1.76,1.69,1.69,0,0,1,1.77,1.55c.05.87,5.12,87.72-32.94,190.24-22.35,60.21-55,114-97,159.87-52.5,57.32-119.87,102.34-200.24,133.81A1.62,1.62,0,0,1,2177.59,958.48Z" transform="translate(-511.6 -472.9)"/></g><path class="cls-9" d="M2114.42,2402.27c-18.56-1.58-57.52-21.37-65.56-30.72-53.44-62.21-161.07-172.19-159.74-258.88.22-14.81,65.62-31.39,74.28-45.35,39.13-20.7,54-25.45,81.53-63.4,81.29-112-123.73-306.83,101.39-388.25,164.9-59.64,308.61-8.2,279.31-266.94s155.9-740.64,437.84-571.55c161.8,97,11.76,324.7,99.78,484,83.64,151.34,23.61,281.55-136.67,381.55s-69.4,167.54-15.23,312.46c65.07,174.09-205.21,217.22-331.69,226.48C2377.81,2189.09,2123.5,2276.81,2114.42,2402.27Z" transform="translate(-511.6 -472.9)"/><path class="cls-2" d="M2114.42,2402.27c-18.56-1.58-57.52-21.37-65.56-30.72-53.44-62.21-161.07-172.19-159.74-258.88.22-14.81,65.62-31.39,74.28-45.35,39.13-20.7,54-25.45,81.53-63.4,81.29-112-123.73-306.83,101.39-388.25,164.9-59.64,308.61-8.2,279.31-266.94s155.9-740.64,437.84-571.55c161.8,97,11.76,324.7,99.78,484,83.64,151.34,23.61,281.55-136.67,381.55s-69.4,167.54-15.23,312.46c65.07,174.09-205.21,217.22-331.69,226.48C2377.81,2189.09,2123.5,2276.81,2114.42,2402.27Z" transform="translate(-511.6 -472.9)"/><g class="cls-10"><g class="cls-11"><path class="cls-12" d="M1971.62,2249.46l-1.89-3.48c536.11-290.8,841.58-868.16,817.15-1544.43l4-.14c11.58,320.5-53.79,630.54-189,896.58C2459.62,1877.68,2241.7,2103,1971.62,2249.46Z" transform="translate(-511.6 -472.9)"/><path class="cls-12" d="M2846.69,2024.41c-160.61-45.05-425.53-34.93-590.55,22.57l-1.3-3.74c165.66-57.72,431.65-67.88,592.92-22.65Z" transform="translate(-511.6 -472.9)"/><path class="cls-12" d="M2076.21,2191.17l-2.78-2.82c64.71-63.74,94.71-157.75,89.17-279.41-4.06-89.21-26.78-190.94-67.54-302.35l3.72-1.36c40.89,111.79,63.7,213.91,67.78,303.52C2172.15,2031.59,2141.76,2126.6,2076.21,2191.17Z" transform="translate(-511.6 -472.9)"/><path class="cls-12" d="M2619.53,1559.48l-2.92-2.67c115.8-126.42,291.56-166.55,418.62-178l.35,3.94C2909.22,1394.14,2734.47,1434,2619.53,1559.48Z" transform="translate(-511.6 -472.9)"/><path class="cls-12" d="M2748.06,1188.67l-4-.12c5.56-193.06-112.56-357.82-183.47-438.85l3-2.61C2634.9,828.56,2753.66,994.26,2748.06,1188.67Z" transform="translate(-511.6 -472.9)"/></g></g><rect class="cls-13" x="1299.06" y="547.22" width="378.11" height="1155.85"/><rect class="cls-14" x="1327.74" y="656.97" width="320.75" height="72.39"/><rect class="cls-14" x="1327.74" y="785.4" width="320.75" height="72.39"/><rect class="cls-14" x="1327.74" y="913.83" width="320.75" height="72.39"/><rect class="cls-14" x="1327.74" y="1042.25" width="320.75" height="72.39"/><rect class="cls-14" x="1327.74" y="1170.68" width="320.75" height="72.39"/><rect class="cls-14" x="1327.74" y="1299.11" width="320.75" height="72.39"/><rect class="cls-14" x="1327.74" y="1427.54" width="320.75" height="72.39"/><polygon class="cls-14" points="1299.06 547.22 1299.06 1703.08 1197.36 1668.05 1197.36 656.97 1296.11 550.4 1298.64 547.66 1299.06 547.22"/><rect class="cls-15" x="1166.07" y="832.1" width="62.58" height="16.35"/><rect class="cls-15" x="1166.07" y="1035.25" width="62.58" height="16.35"/><rect class="cls-15" x="1166.07" y="1238.4" width="62.58" height="16.35"/><rect class="cls-15" x="1166.07" y="1441.55" width="62.58" height="16.35"/><rect class="cls-15" x="1327.74" y="656.97" width="320.75" height="14.01"/><rect class="cls-15" x="1327.74" y="785.4" width="320.75" height="14.01"/><rect class="cls-15" x="1327.74" y="913.83" width="320.75" height="14.01"/><rect class="cls-15" x="1327.74" y="1042.25" width="320.75" height="14.01"/><rect class="cls-15" x="1327.74" y="1170.68" width="320.75" height="14.01"/><rect class="cls-15" x="1327.74" y="1299.11" width="320.75" height="14.01"/><rect class="cls-15" x="1327.74" y="1427.54" width="320.75" height="14.01"/><path class="cls-16" d="M2176.21,2176H1810.65L1709,2141V1917c4-14,8.3-27.23,12.89-39.44,42.85-114.14,28.9-160.54,37.87-244.06,8.86-82.45-10.45-524.74,48-610.25.77-1.12,1.54-2.17,2.33-3.17.07.14.13.3.2.44.14.33.28.63.41.94,23.07,51.93,36.09,81.89,43.57,108.37,1.34,4.74,2.5,9.38,3.49,14,3.83,17.58,5.46,35.09,6.31,58.37.55,15.53.77,33.63,1,56q.09,6.74.19,14,0,4.21.11,8.6c.25,17.09.43,33.72.69,49.78.32,19.57.75,38.32,1.52,56q.32,7.11.7,14c1.21,21.23,3.06,40.8,6,58.38,3.69,22.09,9.12,41,17.2,56a87.83,87.83,0,0,0,9.19,14,65.94,65.94,0,0,0,28.47,20.85c14.5,5.47,28.63,18.52,41.8,37.53,10.52,15.15,20.42,34.11,29.4,56,1.85,4.53,3.68,9.22,5.45,14a578.57,578.57,0,0,1,18,58.38c4.53,17.81,8.52,36.59,11.89,56,.81,4.62,1.56,9.29,2.29,14,2.94,18.93,5.27,38.48,6.91,58.37,1.54,18.43,2.51,37.15,2.81,56q.11,7,.11,14c0,2.88,0,5.75,0,8.64a289.8,289.8,0,0,0,3.42,49.74C2070.08,2089.71,2161.08,2098.87,2176.21,2176Z" transform="translate(-511.6 -472.9)"/><rect class="cls-15" x="847.43" y="425.2" width="93.56" height="23.94"/><rect class="cls-15" x="847.43" y="722.71" width="93.56" height="23.94"/><rect class="cls-15" x="847.43" y="1020.22" width="93.56" height="23.94"/><polygon class="cls-14" points="752.07 263.39 752.07 1703.08 603.13 1659.44 603.13 400.07 752.07 263.39"/><rect class="cls-1" x="752.07" y="266.81" width="465.91" height="1436.27"/><rect class="cls-14" x="836.08" y="437.79" width="91.65" height="225.7"/><rect class="cls-14" x="962.11" y="437.79" width="93.56" height="225.7"/><rect class="cls-14" x="1090.04" y="437.79" width="91.65" height="225.7"/><rect class="cls-14" x="836.08" y="735.3" width="91.65" height="225.7"/><rect class="cls-14" x="962.11" y="735.3" width="93.56" height="225.7"/><rect class="cls-14" x="1090.04" y="735.3" width="91.65" height="225.7"/><rect class="cls-14" x="836.08" y="1032.82" width="91.65" height="225.7"/><rect class="cls-14" x="962.11" y="1032.82" width="93.56" height="225.7"/><rect class="cls-14" x="1090.04" y="1032.82" width="91.65" height="225.7"/><rect class="cls-14" x="836.08" y="1330.33" width="91.65" height="225.7"/><rect class="cls-14" x="962.11" y="1330.33" width="93.56" height="225.7"/><rect class="cls-14" x="1090.04" y="1330.33" width="91.65" height="225.7"/><rect class="cls-15" x="836.08" y="437.79" width="91.65" height="23.94"/><rect class="cls-15" x="836.08" y="735.3" width="91.65" height="23.94"/><rect class="cls-15" x="836.08" y="1032.82" width="91.65" height="23.94"/><rect class="cls-15" x="836.08" y="1330.33" width="91.65" height="23.94"/><path class="cls-16" d="M1729.58,2152.14V2176H1263.66l-148.94-43.63V1919.22c10-45.45,22-89.7,36.28-126.25,54.75-140.21,36.91-197.22,48.37-299.81s-14-658.83,64.29-753.46c73.19,158.44,68.11,151.6,70.65,320.33,1.36,90.24,1.26,170.06,13.37,229.32,10.5,51.5,30.23,87.44,68.11,101.22a84.42,84.42,0,0,1,23.55,13.71c24.63,19.67,47.79,55.2,67.42,101.43,25.82,60.7,45.62,139.83,54.84,225.7,2.54,23.5,4.28,47.54,5.12,71.82.28,8.07.47,16.21.55,24.34q.12,10.62,0,21.24-.06,3.75,0,7.39c.36,61.35,14.49,103.65,34.37,136.1a244.32,244.32,0,0,0,27.76,36.63C1668.91,2072.49,1715.24,2098.79,1729.58,2152.14Z" transform="translate(-511.6 -472.9)"/><polygon class="cls-14" points="319.39 475.56 319.39 1620.03 189.54 1585.35 189.54 584.24 307.63 485.41 317.9 476.79 319.39 475.56"/><rect class="cls-5" x="319.39" y="474.43" width="360.89" height="1145.59"/><rect class="cls-14" x="388.13" y="600.96" width="45.83" height="943.83"/><rect class="cls-14" x="483.6" y="600.96" width="47.74" height="943.83"/><rect class="cls-14" x="579.08" y="600.96" width="47.74" height="943.83"/><rect class="cls-15" x="418.68" y="600.96" width="15.28" height="943.83"/><rect class="cls-15" x="516.06" y="600.96" width="15.28" height="943.83"/><rect class="cls-15" x="613.45" y="600.96" width="15.28" height="943.83"/><path class="cls-16" d="M1191.87,2092.85v.07H831l-129.84-34.68V1941.81c60.15-129.68,40.35-183.61,53.33-279.8,12.68-93.91-14.07-588.7,64.75-703.71a73.86,73.86,0,0,1,9-11c.44.78.88,1.57,1.31,2.36s1,1.77,1.49,2.66c41,73.49,59.81,108.58,68.74,145.89,8.71,36.35,8.06,74.79,9.48,152.93,1.75,96.09,1.39,179.7,21.08,237.25a152.39,152.39,0,0,0,15.27,32.76c11.9,18.85,27.94,32.83,49.65,41,2.4.92,4.87,1.77,7.41,2.53a100.36,100.36,0,0,1,25.05,11.73,132.85,132.85,0,0,1,15.28,11.28c16.86,14.19,33,33.69,47.73,57.38a453.52,453.52,0,0,1,34.37,68.26q7.08,17.34,13.37,36.08c.65,1.91,1.28,3.83,1.91,5.78,23.37,72,37.23,157.27,36,244.13C1175.8,2037.18,1181.75,2067.62,1191.87,2092.85Z" transform="translate(-511.6 -472.9)"/><path class="cls-17" d="M1490.51,1456.13c-7-6.14,0-45,0-45l740.09-53.22L2771,1372.21v53.22Z" transform="translate(-511.6 -472.9)"/><polygon class="cls-18" points="1176.51 1668.16 912.7 1656.61 912.7 1417.27 1176.51 1466.13 1176.51 1668.16"/><path class="cls-19" d="M2209.3,2344.38c-.51,15.17-340.24,5.09-340.24,5.09l-55.8-219.71,73.68-128.08S2223.11,1932.84,2209.3,2344.38Z" transform="translate(-511.6 -472.9)"/><path class="cls-20" d="M1575.82,1968.41h0c4.81.7,9.24,3.39,13.63,7.26,4.22,3.06,9.32,6.67,9.32,11.28v.1c16.27,24.19,27,68.9,27,119,.08,66.66-18.89,120.55-43.91,126.77l0,0c-1.68.35-22.64,11.2-88.71.5-1.75-40.57-2.78-270.26-2.78-270.26S1543.31,1959.14,1575.82,1968.41Z" transform="translate(-511.6 -472.9)"/><path class="cls-21" d="M1443.92,2093.2c0,76.25,24.69,139.44,54.61,141,29.34,1.56,52.68-56.94,52.62-130.57s-23.43-136.44-52.73-140.59C1468.56,1958.83,1443.92,2017,1443.92,2093.2Z" transform="translate(-511.6 -472.9)"/><path class="cls-22" d="M1467.33,2095c0,54.11,16.46,99.08,36.51,100.41,19.79,1.3,35.61-40.52,35.58-93.37s-15.9-97.63-35.66-100.19C1483.74,1999.21,1467.32,2040.88,1467.33,2095Z" transform="translate(-511.6 -472.9)"/><path class="cls-23" d="M2087.73,2147.83h.07c5.87.85,11.26,4.13,16.61,8.84,5.15,3.73,11.37,8.14,11.37,13.75v.13c19.83,29.48,32.87,84,32.95,145,.1,81.26-23,146.94-53.51,154.52l.06.05c-2.06.42-27.61,13.65-108.13.61-2.14-49.45-3.4-329.42-3.4-329.42S2048.11,2136.54,2087.73,2147.83Z" transform="translate(-511.6 -472.9)"/><path class="cls-24" d="M1927,2299.94c0,92.95,30.09,170,66.56,171.9,35.77,1.91,64.21-69.4,64.14-159.15s-28.56-166.3-64.27-171.36C1957,2136.16,1927,2207.1,1927,2299.94Z" transform="translate(-511.6 -472.9)"/><path class="cls-22" d="M1955.5,2302.07c0,65.95,20.07,120.78,44.5,122.39,24.12,1.59,43.41-49.39,43.37-113.8s-19.38-119-43.47-122.13C1975.5,2185.38,1955.49,2236.17,1955.5,2302.07Z" transform="translate(-511.6 -472.9)"/><path class="cls-25" d="M1490.51,1435.66l-150.27,29.17a25.75,25.75,0,0,0-20.65,22.44c-25.92,229.44-13.11,482.84-7.85,564.32a46.25,46.25,0,0,0,25.73,38.51l77.27,38.05a15.5,15.5,0,0,0,22.36-14.34q-.21-6.76-.21-13.69c0-85.91,24-155.56,53.62-155.56s53.61,69.65,53.61,155.56a415.67,415.67,0,0,1-5.34,67.79,26.84,26.84,0,0,0,14.63,28.52l310.51,152.9a14.53,14.53,0,0,0,20.95-13.38q-.18-7.53-.18-15.19c0-122.73,33.45-222.22,74.71-222.22s74.71,99.49,74.71,222.22a612.9,612.9,0,0,1-6.61,91.41,22.92,22.92,0,0,0,12.62,23.92L2257.21,2543l112.07-8.41,422.89-1161.64Z" transform="translate(-511.6 -472.9)"/><path class="cls-26" d="M2382.07,2140.3l-26.48-628.91c-88.07-7.34-870-22.35-1036.56-19-11,99.25-14.75,202.69-15.1,294.56l739.44,164.53Z" transform="translate(-511.6 -472.9)"/><path class="cls-27" d="M1419,1574l-58.49-3.26a5.62,5.62,0,0,0-5.93,5.62v522.14l60.17,29.63a15.33,15.33,0,0,0,9.56,1.36V1579.63A5.62,5.62,0,0,0,1419,1574Z" transform="translate(-511.6 -472.9)"/><path class="cls-28" d="M1417.45,2122.64l-56.74-27.94V1576.92l57.45,3.2V2123C1417.92,2122.86,1417.69,2122.76,1417.45,2122.64Z" transform="translate(-511.6 -472.9)"/><path class="cls-29" d="M1740.16,1591.92,1634.11,1586a7.85,7.85,0,0,0-8.31,7.78c-.49,65.31-3.59,500.05-1.59,637.5l123.4,60.77V1599.79A7.89,7.89,0,0,0,1740.16,1591.92Z" transform="translate(-511.6 -472.9)"/><path class="cls-30" d="M1639.43,2221.68c-1.67-142.23,1.11-543.78,1.66-619.9l91.17,5.08v660.53Z" transform="translate(-511.6 -472.9)"/><path class="cls-31" d="M2241.89,1619.89l-158.31-8.83a16.4,16.4,0,0,0-17.33,16.39c0,106.1.13,667.9.05,821.53l190.91,94h.18v-906.7A16.4,16.4,0,0,0,2241.89,1619.89Z" transform="translate(-511.6 -472.9)"/><path class="cls-32" d="M2087.79,2435.61c0-79.35.05-284-.05-800.31v-2.49l148.16,8.27v867.46Z" transform="translate(-511.6 -472.9)"/><path class="cls-33" d="M2355.65,1466.74v44.65l10.6,1.23,0,610.88-10.6,2.08,0,393a21.54,21.54,0,0,0,22.79,21.51l850.58-48.9a26.58,26.58,0,0,0,25.05-26.54V1475.05a41.11,41.11,0,0,0-27.73-39c-250.78-85.2-533.15-81.16-839.93-8.19A40,40,0,0,0,2355.65,1466.74Z" transform="translate(-511.6 -472.9)"/><polygon class="cls-34" points="2742.42 1636.09 1843.99 1652.69 1843.99 1038.5 2742.42 1038.5 2742.42 1636.09"/><path class="cls-35" d="M2574.61,2288.29l-81.28,3.11c-9.44.36-17.11,7.8-17.11,16.62v49.12c0,8.82,7.67,15.61,17.11,15.18l81.28-3.75c9.28-.43,16.79-7.84,16.79-16.56v-48.58C2591.4,2294.71,2583.89,2287.93,2574.61,2288.29Z" transform="translate(-511.6 -472.9)"/><path class="cls-36" d="M3171.58,2265.44l-72.06,2.76a15.81,15.81,0,0,0-15.16,15.6V2330a14.28,14.28,0,0,0,15.16,14.32l72.06-3.32a15.73,15.73,0,0,0,14.89-15.55v-45.76A14.2,14.2,0,0,0,3171.58,2265.44Z" transform="translate(-511.6 -472.9)"/><g class="cls-37"><path class="cls-22" d="M3254,2464.67V1475.05a41.11,41.11,0,0,0-27.73-39c-196.55-66.78-412.5-78.72-644.4-45.64,101.59,69.34,146.56,141.84,165.24,206.34,38.41,132.59-41.78,205,10.79,349.81,58.87,162.15,197.92,177.46,323.8,323.29,43.58,50.5,89.62,121.31,122.34,222.79l24.91-1.44A26.58,26.58,0,0,0,3254,2464.67Z" transform="translate(-511.6 -472.9)"/></g><path class="cls-38" d="M2301.65,2370.06l110,54.44L3254,2384.44v92.48a40.79,40.79,0,0,1-38,40.7l-822.22,56.2a191,191,0,0,1-74.44-9.71L2257.21,2543l8.77-152.18A24.74,24.74,0,0,1,2301.65,2370.06Z" transform="translate(-511.6 -472.9)"/><path class="cls-39" d="M2390.26,2462.49v51.77a27.16,27.16,0,0,0,28.68,27.12l795.42-44.62a16,16,0,0,0,15.09-16v-66.39a16,16,0,0,0-16.72-16l-796.57,36.92A27.15,27.15,0,0,0,2390.26,2462.49Z" transform="translate(-511.6 -472.9)"/><path class="cls-40" d="M1466.07,1423.41,1615.39,3099c2.26,25.37-15.36,47.93-39.2,50.12l-807.88,83.21c-48.33,2.57-73.91-23.64-76.08-50L548.92,1442.65c-2.12-25.68,21.89-49.89,69.64-51.64L1419,1379.24C1442.71,1378.79,1463.86,1398.66,1466.07,1423.41Z" transform="translate(-511.6 -472.9)"/><path class="cls-41" d="M1502.76,1419.25l150.68,1685.58c2.28,25.52-15.43,48.22-39.41,50.43l-838.27,77.36c-25.7,2.37-48.56-17.38-50.75-43.9L580.42,1438.58c-2.13-25.84,17-47.37,42.54-47.86l832.49-15.9C1479.27,1374.36,1500.54,1394.35,1502.76,1419.25Z" transform="translate(-511.6 -472.9)"/><path class="cls-42" d="M1066,1433.5c.76,8.79-5.55,16.06-14.09,16.25s-16.1-6.8-16.85-15.6,5.56-16.07,14.11-16.24S1065.26,1424.71,1066,1433.5Z" transform="translate(-511.6 -472.9)"/><g class="cls-43"><polygon class="cls-22" points="1022.21 1493.82 142.04 1532.39 120.75 1286.09 1001.38 1255.75 1022.21 1493.82"/><polygon class="cls-1" points="1122.75 2642.63 244.78 2720.91 130.44 1398.18 1010.86 1364.1 1122.75 2642.63"/><polygon class="cls-44" points="1007.53 1326.07 127.04 1358.84 96.68 1007.69 977.83 986.63 1007.53 1326.07"/><path class="cls-22" d="M828.13,1724.89c1.16,13.34-9,24.54-22.7,25s-25.78-10-26.94-23.35,9-24.56,22.75-25S827,1711.55,828.13,1724.89Z" transform="translate(-511.6 -472.9)"/><path class="cls-22" d="M1002.69,1719.06c1.15,13.25-8.86,24.37-22.38,24.83s-25.45-9.92-26.6-23.19,8.89-24.4,22.42-24.84S1001.54,1705.81,1002.69,1719.06Z" transform="translate(-511.6 -472.9)"/><path class="cls-22" d="M1016.1,1597.91l-249.89,7.19c-15.34.44-26.73,12.89-25.44,27.81l8,92.37,23.28-.77c-.17-15.77,12.21-28.62,28.65-29.15s30.91,11.42,33.46,27.08l113.19-3.77c-.19-15.67,12-28.43,28.25-29s30.51,11.35,33,26.9l44.93-1.49-7.94-91.3C1044.34,1609.08,1031.13,1597.47,1016.1,1597.91Z" transform="translate(-511.6 -472.9)"/><polygon class="cls-22" points="449.33 1156.02 444.95 1164.88 287.06 1084.3 291.49 1075.41 449.33 1156.02"/><polygon class="cls-22" points="511.4 1154.16 507.05 1163 349.89 1082.61 354.3 1073.73 511.4 1154.16"/><polygon class="cls-22" points="903.1 1144.03 585.46 1153.55 582.78 1122.76 900.45 1113.61 903.1 1144.03"/><polygon class="cls-22" points="908.19 1202.2 590.59 1212.44 587.91 1181.64 905.53 1171.77 908.19 1202.2"/><g class="cls-45"><path class="cls-22" d="M1643.72,3251.73a29,29,0,0,1-20.78-8.74L1175.4,2785.71a29,29,0,0,1-8.19-17.81l-49.3-566.56L696.47,1837.13a29.07,29.07,0,0,1,38-44l430.37,371.93a29,29,0,0,1,10,19.48l49.42,567.94,440.27,449.84a29.07,29.07,0,0,1-20.77,49.4Z" transform="translate(-511.6 -472.9)"/><path class="cls-22" d="M630.28,2405.36a29.07,29.07,0,0,1-1.65-58.09l494.42-28.58,443.3-296.37a29.07,29.07,0,0,1,32.31,48.33l-449.87,300.76a29.1,29.1,0,0,1-14.48,4.86l-502.32,29C631.42,2405.34,630.85,2405.36,630.28,2405.36Z" transform="translate(-511.6 -472.9)"/><path class="cls-22" d="M933.06,2956.06a20.52,20.52,0,0,1-20.42-18.75L863.8,2374a20.52,20.52,0,0,1,40.89-3.55l47.07,543,892.81-71.31a20.52,20.52,0,1,1,3.27,40.9L934.71,2956C934.16,2956,933.6,2956.06,933.06,2956.06Z" transform="translate(-511.6 -472.9)"/><path class="cls-22" d="M1151.73,3230.75a12,12,0,0,1-10.42-17.84l378.35-672.08c-2.12-20.24-12.27-118-21.63-215.47-13.42-139.67-17.47-194-17.43-216.39-27.14-.24-107.26,5.22-180.24,11.55a12,12,0,0,1-13-10.89l-9.87-113.15L954,2010.74a12,12,0,0,1-1-23.92l335-14.76a11.89,11.89,0,0,1,12.45,10.92l9.83,112.68c17.22-1.44,50.66-4.16,84-6.46,104-7.19,105.34-4.61,109.69,3.93a12.32,12.32,0,0,1,.52,10c-2.11,25.56,22.92,281.41,39.44,439a12,12,0,0,1-1.47,7.12l-380.22,675.4A12,12,0,0,1,1151.73,3230.75ZM1502.16,2107h0Zm0,0Z" transform="translate(-511.6 -472.9)"/><path class="cls-46" d="M1643.72,3227.79a5.16,5.16,0,0,1-3.67-1.54L1192.5,2769a5.12,5.12,0,0,1-1.44-3.14l-9.7-111.51a5.13,5.13,0,1,1,10.22-.89l9.54,109.68,446.26,456a5.12,5.12,0,0,1-3.66,8.72Z" transform="translate(-511.6 -472.9)"/><path class="cls-47" d="M1185.46,2647.57a5.13,5.13,0,0,1-5.1-4.69L1176.8,2602a5.13,5.13,0,1,1,10.22-.89l3.56,40.88a5.13,5.13,0,0,1-4.67,5.56Zm-7.11-81.77a5.12,5.12,0,0,1-5.1-4.68l-3.56-40.88a5.13,5.13,0,1,1,10.22-.89l3.56,40.88a5.13,5.13,0,0,1-4.67,5.55A3.39,3.39,0,0,1,1178.35,2565.8Zm-7.12-81.76a5.12,5.12,0,0,1-5.1-4.68l-3.56-40.89a5.13,5.13,0,0,1,10.22-.89l3.56,40.89a5.12,5.12,0,0,1-4.66,5.55Zm-7.11-81.76a5.13,5.13,0,0,1-5.1-4.69l-3.56-40.88a5.13,5.13,0,1,1,10.22-.89l3.56,40.88a5.15,5.15,0,0,1-4.67,5.56Zm-7.12-81.77a5.12,5.12,0,0,1-5.1-4.68l-3.56-40.88a5.13,5.13,0,1,1,10.22-.89l3.56,40.88a5.13,5.13,0,0,1-4.67,5.55A3.39,3.39,0,0,1,1157,2320.51Zm-7.11-81.76a5.12,5.12,0,0,1-5.1-4.69l-3.56-40.88a5.13,5.13,0,0,1,10.22-.89l3.55,40.89a5.12,5.12,0,0,1-4.66,5.55Zm-30.79-69.66a5.09,5.09,0,0,1-3.35-1.25l-31-26.83a5.13,5.13,0,0,1,6.71-7.77l31,26.84a5.13,5.13,0,0,1-3.36,9Zm-62.1-53.67a5.09,5.09,0,0,1-3.35-1.25l-31.05-26.83a5.13,5.13,0,0,1,6.71-7.76l31,26.83a5.13,5.13,0,0,1-3.36,9Zm-62.09-53.66a5.09,5.09,0,0,1-3.35-1.25l-31-26.83a5.13,5.13,0,0,1,6.71-7.77l31,26.84a5.13,5.13,0,0,1-3.35,9Zm-62.1-53.67a5.09,5.09,0,0,1-3.35-1.25L898.41,1980a5.13,5.13,0,1,1,6.71-7.76l31,26.83a5.13,5.13,0,0,1-3.36,9Zm-62.1-53.66a5.11,5.11,0,0,1-3.35-1.25l-31.05-26.83a5.13,5.13,0,0,1,6.71-7.77l31.05,26.84a5.13,5.13,0,0,1-3.36,9Zm-62.09-53.67a5.12,5.12,0,0,1-3.36-1.25l-31-26.83a5.13,5.13,0,1,1,6.71-7.76l31,26.83a5.13,5.13,0,0,1-3.35,9Zm-62.1-53.66a5.09,5.09,0,0,1-3.35-1.25l-31-26.83a5.13,5.13,0,1,1,6.71-7.76l31,26.83a5.13,5.13,0,0,1-3.36,9Z" transform="translate(-511.6 -472.9)"/></g></g><g class="cls-48"><path class="cls-22" d="M1301.35,2576.37c-81.27-283.94-318.21-255.54-389.07-512.11-58.2-210.71,76-321.8-5.4-498.21-38.29-83-105.36-139.07-174.9-177.41l-109,2.08c-25.51.49-44.67,22-42.54,47.86L725,3188.72c2.2,26.52,25.06,46.27,50.76,43.9l687.31-63.43c-44-55.75-85.65-124-114.59-205.94C1287.22,2789.78,1346.29,2733.38,1301.35,2576.37Z" transform="translate(-511.6 -472.9)"/></g><path class="cls-49" d="M1349.73,2262.7c0,72.86-102.07,205.8-148.26,262.23a28.74,28.74,0,0,1-44.48,0c-46.19-56.43-148.25-189.37-148.25-262.23a170.5,170.5,0,1,1,341,0Z" transform="translate(-511.6 -472.9)"/><circle class="cls-22" cx="1179.23" cy="2262.7" r="95.09" transform="translate(-1766.18 1023.68) rotate(-45)"/><g class="cls-50"><path class="cls-51" d="M1178.48,2454.93c10.82-71.23,57.86-94,49.78-161.3-9.31-77.57-78-98.23-79.65-167.27a109.25,109.25,0,0,1,4.1-32.1,170.53,170.53,0,0,0-144,168.44c0,72.86,102.06,205.8,148.25,262.23a28.66,28.66,0,0,0,26.61,10.2C1175.33,2503.93,1175.08,2477.29,1178.48,2454.93Z" transform="translate(-511.6 -472.9)"/></g><circle class="cls-52" cx="1179.23" cy="2607.88" r="34.85" transform="translate(-2010.26 1124.78) rotate(-45)"/><ellipse class="cls-53" cx="1443.91" cy="2721.14" rx="202.31" ry="105.08"/><path class="cls-54" d="M1390.19,1871.29a61.54,61.54,0,0,0,10-31.58c.78-29.3-21-52.16-23.88-50.84-1.57.7.43,9.29,1.55,13.09,2.32,7.92,4.83,8.69,4.62,12.33-.43,7.49-11.25,7.78-17,17.71a26.83,26.83,0,0,0,0,25.43C1372.9,1870.81,1389.49,1871.28,1390.19,1871.29Z" transform="translate(-511.6 -472.9)"/><polygon class="cls-55" points="1342.81 2034.8 1334.45 2006.05 1369.33 1980.21 1391.06 1972.09 1378.19 2012.3 1342.81 2034.8"/><path class="cls-56" d="M1811.24,3086.58s19.07,48,14,69.27c20.48-.4,33.73-3,33.73-3s-8.23-21.89-9.84-32.73c-2.17-14.64-2-38.34-2-38.34Z" transform="translate(-511.6 -472.9)"/><path class="cls-57" d="M1601,3198.82a15.07,15.07,0,0,1,3.61,8.81,14.5,14.5,0,0,1-1.08,5.91c-3.26,8.55-8.37,9.68-13.88,18.76-3.36,5.55-2.73,7.23-5.81,9.73-4.07,3.3-9,3.49-13.26,3.54a237.18,237.18,0,0,1-30.64-1.73q10.27-13.23,21.87-26.84,5.09-5.94,10.16-11.62l20.13-6.8Z" transform="translate(-511.6 -472.9)"/><path class="cls-58" d="M1584.24,3101.1s-11.5,60,3.14,76.84c12.47,16.8-6,4.81-6,4.81L1559.27,3202,1546,3224.92s12.2-58.76,9-82.07-4.88-39-4.88-39Z" transform="translate(-511.6 -472.9)"/><path class="cls-59" d="M1540.87,2444.5S1510,2472.15,1510,2586s14.64,361.11,14.64,361.11l23.43,177s24.29.86,40.55-4c14.64-66.69,38.5-179.5,27.11-273.84-4.88-102.48,40.67-231,40.67-231s39,130.13,66.69,195.19,80.3,268.89,85.17,283.53c32.36,2.94,46.18-5.62,46.18-5.62s-20.75-219.35-40.26-302.31-17.9-283-50.43-340C1690.51,2416.84,1540.87,2444.5,1540.87,2444.5Z" transform="translate(-511.6 -472.9)"/><path class="cls-60" d="M1540.87,2444.5S1510,2472.15,1510,2586s14.64,361.11,14.64,361.11l23.43,177s24.29.86,40.55-4c14.64-66.69,38.5-179.5,27.11-273.84-4.88-102.48,40.67-231,40.67-231s39,130.13,66.69,195.19,80.3,268.89,85.18,283.53c32.35,2.94,46.17-5.62,46.17-5.62s-20.75-219.35-40.26-302.31-17.9-283-50.43-340C1690.52,2416.84,1540.87,2444.5,1540.87,2444.5Z" transform="translate(-511.6 -472.9)"/><path class="cls-61" d="M1701.42,2653.12c9.63,62.65,28.91,96.38,77.09,139.74,38.55,28.91,9.64,91.55,24.09,139.74,4.82,14.45,19.28,28.91,24.1,43.36,17.93,35.86,1.18,79.73,9.31,117.7,12.65-1.75,18.39-5.27,18.39-5.27s-20.75-219.35-40.26-302.31-17.9-283-50.43-340c-73.19-29.28-222.84-1.62-222.84-1.62S1510,2472.15,1510,2586c0,9.24.1,19.37.28,30.16,32.08,28.39,97.7,34.7,138.17,3.23a19.12,19.12,0,0,1,7.74-3.51c.12-.36.21-.6.21-.6s.06.22.17.56C1674.94,2612.49,1697.24,2636.41,1701.42,2653.12Z" transform="translate(-511.6 -472.9)"/><path class="cls-57" d="M1820.27,3174.06s-4.75,0-4.36,6.14-2.14,27.26,22,28.25,27.89-1.71,28.68-1.71-6.34-20.2-6.34-20.2l-7.72-9.91-20.8-2.17Z" transform="translate(-511.6 -472.9)"/><path class="cls-62" d="M1873.85,3195.26c-.51-5.1-3.37-13.13-6.24-19.59-4.26-9.6-.76-13.19-4.84-21.93A26.07,26.07,0,0,0,1857,3145a24.93,24.93,0,0,0-17.06-6.5,17.41,17.41,0,0,0-8,1.88c-3.74,2-5.62,5-7.22,7.63-2.52,4.14-1.94,5.41-5.82,17.27a42.9,42.9,0,0,0-2.16,11.15c6.34,0,30.7,1,35.85,4.75s7.72,10.1,7.72,16.44,3.17,9.31,6.34,9.11C1869.45,3206.56,1875.08,3201.32,1873.85,3195.26Z" transform="translate(-511.6 -472.9)"/><path class="cls-62" d="M1581.16,3169.5c5.44.09,9.43,4.42,12.44,14.86s17.47,19.68.61,17.47-29.12,21.68-35.14,30.51-22.19,16.69-21.79,8,7.54-12.66,9.54-21.5S1568.74,3169.31,1581.16,3169.5Z" transform="translate(-511.6 -472.9)"/><path class="cls-63" d="M1867.2,2458.24c4-11.13,29-84.22-11.39-150.87-33-54.57-90.23-72.37-98.39-74.78-49.63-14.65-74.51,4.18-90.17-13.15-26.57-29.41,3.53-129.59,61.76-149.66,65.64-22.62,144.38,64.36,176.29,121.48,41.86,74.95,31.55,149.44,29.13,164.78a257.17,257.17,0,0,1-31.77,88.94Z" transform="translate(-511.6 -472.9)"/><path class="cls-64" d="M1695.79,2055.64c-58.58-2.34-103.77-1.42-129.29,24.09-27,26.94.28,57.35-5.57,127.83-9,107.88-77.71,134.24-82.88,243.7a279.29,279.29,0,0,0,9.34,85.18,294,294,0,0,0,76.23,67.48c53,32.27,83.79,26.64,160,47.49,124.59,34.09,135.67,74.7,197.45,64.36,62.44-10.46,117.21-63,110.6-91.86-4-17.28-29.13-12.38-58.11-38.74-37.35-34-23-66.39-51.34-102.89-40.79-52.42-97.61-20.37-132.37-65.81-35.15-46-21.21-136.54,8.43-185.91,19.35-32.25,27.64-70,44.11-103.85a23.47,23.47,0,0,0,2.26-13.17c-2.67-22-39.38-34-67.18-42.73C1735,2057.44,1700.61,2055.83,1695.79,2055.64Z" transform="translate(-511.6 -472.9)"/><path class="cls-65" d="M1646.44,2053.22l11.56-3.56s3,15.64,40.18,17.6a55.49,55.49,0,0,0,34-11.56l7.9,5.76s-17.33,21.64-44.88,21.09C1659.6,2081.84,1646.44,2053.22,1646.44,2053.22Z" transform="translate(-511.6 -472.9)"/><path class="cls-66" d="M1670,2005.63c2.23-17.19,15.81-28.19,18.78-30.55,12.41-9.86,14.93-10.86,19.2-11.67l5.82-.88.63,0c3.41.2,13.62,4.19,15.48,5.5,5.93,4.17,1.56,33.71-16.42,70.45-.71,3.11-1.41,6.22-2.12,9.33,15.67,2.75,19.55,5.58,19.68,7.84.26,4.89-16.9,11.13-32.8,11.54-19.94.5-41.12-8.08-40.71-14.48.16-2.59,3.92-5.79,18.4-8.93q3.4-4.77,6.79-9.55C1680.65,2031.77,1668.33,2018.28,1670,2005.63Z" transform="translate(-511.6 -472.9)"/><path class="cls-67" d="M1694.63,1999.16c4.52-2.71,8,3.11,5.84,8.2s-9.29,8.26-13.64,5.23S1688.54,2002.8,1694.63,1999.16Z" transform="translate(-511.6 -472.9)"/><path class="cls-68" d="M1704.13,2002.92c17.58,35.2-9.56,64-9.09,100.49.8,63.73,85.85,140.73,171,139.34,58.44-1,97.82-38.34,140-79.13,31.27-30.25,96.6-93.44,104.69-192.35,2.71-33.13,8.92-109-43.82-154.62-59.41-51.43-165.62-40.37-194.79,4.88-25.2,39.09,19.13,85.07-12.17,126.6-20.68,27.43-65.77,41.54-91.31,28-16.66-8.83-15.25-24.25-34.08-31.65-22.83-9-54.7,2-58.44,17C1673,1974.23,1693,1980.59,1704.13,2002.92Z" transform="translate(-511.6 -472.9)"/><path class="cls-69" d="M1397.31,1867.19c-1.5,14.09-6.58,76.45,36.43,129.1,40.19,49.19,97.1,59,107.68,60.62,51.18,7.73,73.25-14.32,91.13.7,30.35,25.5,14.22,128.86-40.72,156.7-61.93,31.38-151.82-44-191.24-96.24-51.71-68.52-51.69-143.72-51.39-159.24a257.07,257.07,0,0,1,19.31-92.46,45.69,45.69,0,0,1,28.8.82Z" transform="translate(-511.6 -472.9)"/><path class="cls-70" d="M1922.9,2674.53c-15-15.36,1.51-46.34-20.62-69.36-20.53-21.37-43.79-4.11-76.85-22.5-42.41-23.58-30.72-66.76-71.23-90-29.13-16.7-42.82,1.25-88.11-7.5s-100.26-39.91-127.46-95.6a164.41,164.41,0,0,1-16.39-68.23c-20.33,36.33-41.42,71.14-44.19,129.89a279.29,279.29,0,0,0,9.34,85.18,294,294,0,0,0,76.23,67.48c53,32.27,83.79,26.64,160,47.49,124.59,34.09,135.67,74.7,197.45,64.36,39.9-6.69,76.59-30.56,96.21-54.45C1959.66,2687,1933.78,2685.67,1922.9,2674.53Z" transform="translate(-511.6 -472.9)"/></g></g></svg>